<svg xmlns="http://www.w3.org/2000/svg" xml:space="preserve" width="35.287cm" height="430.295" style="shape-rendering:geometricPrecision;text-rendering:geometricPrecision;image-rendering:optimizeQuality;fill-rule:evenodd;clip-rule:evenodd" viewBox="0 0 32781.74 10576.6"><defs><linearGradient id="b" gradientUnits="userSpaceOnUse" x1="31893.13" y1="6296.24" x2="12261.45" y2="6296.21"><stop offset="0" style="stop-opacity:1;stop-color:#ff8490"/><stop offset="1" style="stop-opacity:1;stop-color:#a176ff"/></linearGradient><linearGradient id="a" gradientUnits="userSpaceOnUse" x1="10064.68" y1="6401.29" x2="112.89" y2="6452.78"><stop offset="0" style="stop-opacity:1;stop-color:#fe7da1"/><stop offset="1" style="stop-opacity:1;stop-color:#a476ff"/></linearGradient></defs><path d="M4604.67 32.15c1649.8-198.93 3335.97 538.79 4351.94 1843.17 646.61 790.49 1040.22 1784.17 1091.02 2805.37 50.15 1145.75-15.73 2295.44 33.1 3441.18 57.36 910.44 696.1 1836.94 1657.34 1929.35-252.35 284.8-634.82 460.14-1017.28 451.62-838.99 64.23-1612.44-530.93-1932.97-1280.78-476.52-1069.38-237.6-2276.74-296.27-3407.42 64.89-995.32-128.14-2050.62-754.76-2850.61-841.95-1145.09-2486.5-1623.58-3797.43-1044.8-1702.89 646.29-2541.88 2722.46-2035.87 4420.11 360.18 1394.5 1639.64 2483.87 3080.68 2593.34 953.38 169.44 1873.98-205.16 2683.47-662.68 165.5 319.54 293.97 667.27 554.52 927.15 63.26 67.85 172.39 192.71 50.14 265.8-1135.59 1038.58-2821.44 1303.06-4290.66 990.08-1635.05-356.58-3053.47-1581.64-3626.35-3156.71-397.54-1064.47-477.17-2257.41-158.94-3353.35C796.1 1983.46 2491.45 216.67 4604.66 32.15zm-426.38 4192.01c394.92-93.4 788.53 71.45 1066.11 345.76 323.47-332.65 861.28-434.24 1279.46-229.08 355.59 170.75 509.62 573.53 490.95 946.82-80.29 667.59-703.97 1044.8-1137.23 1485.28-234.98 178.94-425.4 516.83-759.03 483.73-324.12-161.91-566.32-440.14-844.56-665.63-373.62-423.42-887.83-874.05-831.13-1497.73-22.94-429.65 347.73-759.02 735.43-869.15" style="fill:url(#a);fill-rule:nonzero"/><path d="M27644.18 4259.56c674.15-77.01 1422.36 120.61 1880.85 644.32 392.62 417.53 491.6 1013.02 497.5 1564.26-49.49 115.69-199.59 195.66-326.42 164.53-1003.83 4.59-2007.35-1.64-3010.54 1.96 62.92 455.55 341.17 881.27 784.26 1044.81 552.55 201.56 1201.14 107.82 1656.35-272.02 258.25-289.71 630.56 129.46 756.4 367.39-252.02 394.58-724.61 551.24-1149.68 679.71-844.23 199.59-1829.07 77.01-2471.43-549.28-759.67-705.93-852.75-1980.48-225.48-2801.12 366.41-511.58 989.75-799.67 1608.18-844.57m-14453.28 31.47c584.68-84.56 1232.28 9.5 1686.84 413.6 282.5 311.01 364.76 737.06 394.26 1142.79 19.99 803.93-24.25 1616.05 27.2 2416.04-140.92 241.87-529.62 173.05-767.88 129.78-239.9-56.05-122.57-410.65-206.14-511.59-499.47 622.69-1571.15 774.44-2173.19 204.84-548.96-459.48-506.02-1425.96 109.46-1812.35 584.02-394.59 1332.56-429 2008.67-419.83 41.94-285.78-123.56-676.77-446.7-750.5-388.36-117-833.09-16.06-1136.9 252.02-259.56 252.69-598.11-154.35-684.64-393.93 230.4-416.55 743.63-594.18 1189.01-670.87m18220.89-1807.77c216.3 9.83 672.51-126.84 728.22 197.29 32.78 1524.61 3.28 3051.18 14.09 4576.77-14.09 173.05 46.53 342.15 132.08 489.63 142.89 110.11 334.61 98.65 490.28 171.08 36.38 237.94-118.31 483.08-363.13 515.85-353.29 96.36-791.14 21.64-1021.21-284.14-172.39-229.73-147.8-525.68-184.51-794.74-9.84-1551.16-2.63-3102.96-3.61-4654.12-2.94-119.94 107.83-184.18 207.79-217.61zm-15468.6 1870.04c283.16-31.14 772.13-104.55 845.88 277.91 229.08 829.82 464.39 1658.65 690.53 2489.78 12.12-.33 36.7-.33 48.84-.33 253-824.57 480.45-1657.33 735.1-2481.26 85.21-394.26 567.96-311.01 869.47-288.72 109.46 28.51 216.62 93.73 251.69 207.12 231.7 837.36 469.96 1674.38 695.78 2513.71 58.67 541.03 653.18-2215.33 700.03-2404.24 29.82-448.66 620.06-344.45 918.63-294.96 216.31-9.5 172.06 264.8 132.74 394.58-376.89 1170.66-752.8 2342.3-1146.41 3508.04-219.9 210.08-586.64 179.59-866.52 110.44-136.67-22.61-207.13-164.19-237.6-284.8-259.56-794.09-515.86-1589.17-773.13-2383.92-292 766.57-511.92 1576.39-778.36 2359.67-46.87 179.27-176.98 364.11-390.66 337.24-259.89 34.41-676.43 53.75-755.42-274.97-329.37-925.51-623.67-1863.81-940.59-2793.91-78-289.38-263.17-557.47-236.63-866.19 59.65-71.12 148.46-105.2 236.63-125.19m8652.77-27.54c227.45 4.59 737.06-49.81 642.67 341.83-31.78 193.69-23.6 612.86-339.86 505.03-561.73-167.47-1214.89 196.64-1263.07 807.54-10.16 731.16 2.29 1462.99-3.6 2194.49-5.9 157.63-178.28 260.54-327.73 228.75-232.36 39.01-589.59 66.54-676.43-207.78-23.93-1218.5-8.53-2438.32-7.87-3656.82 89.15-306.1 521.42-163.87 747.88-194.67 263.49 16.71 250.06 329.04 235.97 522.73 95.04-4.91 117.98-122.9 185.82-173.37 195.33-243.84 504.06-347.07 806.23-367.72zM13682.81 6552.03c-381.8-18.02-1013.35 222.53-872.75 709.54 89.47 421.46 606.96 417.53 924.86 290.37 404.1-143.55 627.28-600.41 556.82-1013.35-202.87-11.8-407.37-5.9-608.92 13.43zM27838.83 4976.3c-524.69-2.62-1047.42 397.86-1093.64 934.03 754.12 6.56 1508.88 2.95 2263.65.33-15.4-578.45-616.47-1001.55-1170-934.36z" style="fill:url(#b);fill-rule:nonzero"/></svg>